<?xml version="1.0" encoding="utf-8"?>
<!-- Generator: Adobe Illustrator 24.3.0, SVG Export Plug-In . SVG Version: 6.00 Build 0)  -->
<svg version="1.1" id="Layer_1" xmlns="http://www.w3.org/2000/svg" xmlns:xlink="http://www.w3.org/1999/xlink" x="0px" y="0px"
	 viewBox="0 0 595.28 841.89" style="enable-background:new 0 0 595.28 841.89;" xml:space="preserve">
<style type="text/css">
	.st0{fill:#FFFFFF;stroke:#000000;stroke-miterlimit:10;}
	.st1{fill:#FAA51D;}
	.st2{fill:#FFD645;}
	.st3{fill:none;stroke:#000000;stroke-miterlimit:10;}
	.st4{fill:#FAA51D;stroke:#000000;stroke-miterlimit:10;}
	.st5{fill:#ACE0F0;stroke:#000000;stroke-miterlimit:10;}
	.st6{fill:#70B1E1;stroke:#000000;stroke-miterlimit:10;}
	.st7{fill:#3555A6;stroke:#000000;stroke-miterlimit:10;}
	.st8{fill:#3A76BB;stroke:#000000;stroke-miterlimit:10;}
	.st9{fill:#3C53A4;stroke:#000000;stroke-miterlimit:10;}
</style>
<g id="Layer_1_1_">
	<g>
		<path class="st0" d="M202.84,263.28l-104.5,12.43c-19.33,2.3-36.56-8.91-38.48-25.03l0,0c-1.92-16.13,12.2-31.06,31.53-33.36
			l105.9-5.96c36.56,8.91,35.16,2.43,37.08,18.56l0,0C236.29,246.05,222.17,260.98,202.84,263.28z"/>
		<path class="st0" d="M173.73,372.43L173.73,372.43c-14.63-5.49-7.09-10.54-9.6-38.69l29.39-94.68
			c6.18-16.48,23.05-25.38,37.69-19.89l0,0c5.13,5.63,11.15,23.45-1.04,32l-47.69,85.76C194.39,380.18,188.36,377.92,173.73,372.43z
			"/>
		<path class="st0" d="M147.18,176.62l-67.66,48.39c-20.42,23.44-24.43,24-44.78,6.27l0,0c-20.35-17.73-14.49-31.15,5.93-54.59
			l32.08-62.87c0.48-0.94,1.07-1.83,1.79-2.61c20.49-22.4,52.77-26.57,72.77-9.14l0,0C167.66,119.8,167.6,153.18,147.18,176.62z"/>
		<path class="st0" d="M167.5,213.66L167.5,213.66L167.5,213.66c-12.5-9.29-20.23-3.93-30.21-19.59l0,0l-55.43-49.99l0,0
			c-9.98-15.66-4.91-36.74,11.32-47.08l0,0c16.23-10.34,37.48-6.02,47.45,9.64l30.01,66.18
			C180.63,188.48,206.59,229.83,167.5,213.66z"/>
		<path class="st0" d="M144.42,250.4l-78.68,22.57c-18.39,3.06-35.53-7.81-38.27-24.29l0,0c-2.74-16.48,9.94-32.32,28.34-35.38
			l81.79-13.62c18.39-3.06,35.53,7.81,38.27,24.29l0,0C178.61,240.45,164.88,240.67,144.42,250.4z"/>
		<path class="st0" d="M133.59,340.11l-7.84-112.3c1.17-15.56,13.34-27.33,27.18-26.29l0,0c13.84,1.04,24.12,14.5,22.95,30.06
			L156.71,347.9c28.83,55.3-2.1,16.46-15.95,15.42l0,0C126.92,362.29,132.42,355.67,133.59,340.11z"/>
		<path class="st0" d="M211.6,227.06L211.6,227.06c-1.55-0.35-2.52-1.9-2.17-3.45l3.15-13.83c0.35-1.55,1.9-2.52,3.45-2.17l0,0
			c1.55,0.35,2.52,1.9,2.17,3.45l-3.15,13.83C214.69,226.45,213.15,227.42,211.6,227.06z"/>
		<path class="st0" d="M221.01,246.62L221.01,246.62c-7.82-2.38-6.96-8.11-10.07-17.73l5.01-16.45c2.26-7.41,10.42-11.49,18.24-9.11
			l0,0c7.82,2.38,12.33,10.32,10.07,17.73l-5.01,16.45C239.05,244.23,233.13,247.55,221.01,246.62z"/>
		<path class="st0" d="M178.3,217.37L178.3,217.37c-8.3-1.89-14.82-14.93-12.52-25.03l25.93-55.32c2.3-10.11,4.02-18.43,9.57-20.49
			l0,0c15.51,1.3,13.16,11.62,10.86,21.72l-15.73,48.9C194.11,197.26,186.61,219.26,178.3,217.37z"/>
		<path class="st0" d="M205.23,91.6l-6.65,8.35c-12.41,15.58-35.1,18.14-50.67,5.73l0,0c-15.58-12.41-18.14-35.1-5.73-50.67
			l6.65-8.35c12.41-15.58,35.1-18.14,50.67-5.73l0,0C215.08,53.34,217.64,76.02,205.23,91.6z"/>
		<path class="st0" d="M196.61,128.05L196.61,128.05c-38.27-19.04-21.16-18.49-12.4-16.71c13.34,2.71,11.63-3.04-1.21-3.98
			c-0.11-0.01-0.22-0.04-0.33-0.04l-12.44-0.03c-1.52,0-13.23-1.38-11.38-3.24c6.95-6.98,39.88-10.02,47.59-7.62l0,0
			c8.73,2.71,13.61,11.99,10.9,20.73l0,0C214.62,125.88,205.34,130.76,196.61,128.05z"/>
		<path class="st0" d="M131.61,79.92L131.61,79.92c-5.62-4.15-6.81-12.07-2.65-17.69l20.47-27.7c4.15-5.62,12.07-6.81,17.69-2.65
			l0,0c5.62,4.15,6.81,12.07,2.65,17.69l-20.47,27.7C145.15,82.88,137.23,84.07,131.61,79.92z"/>
		<path class="st0" d="M220.83,61.76L220.83,61.76c-4.96,7.87-15.36,10.22-23.23,5.26l-22-13.88c-7.87-4.96-10.22-15.36-5.26-23.23
			l0,0c4.96-7.87,15.36-10.22,23.23-5.26l22,13.88C223.44,43.49,225.79,53.89,220.83,61.76z"/>
	</g>
</g>
<g id="Color">
</g>
<g>
	<g id="Layer_2_1_">
		<g>
			<path class="st1" d="M466.68,358.73c-2.1,2.83-4.98,6.32-8.92,10.8c-7.99,4.76-9.45,7.35-8.48,9.29
				c-6.48-9.02-15.59-6.76-26.52-7.6c-12.65-0.98-13.91,3.54-15.43,7.33c-1.52,3.8,3.85,2.82,7.08,3.8
				c10.7,3.24-1.28,7.76-7.43,9.69c-1.23,0.39-0.99,1.62-0.21,2.66c4.52,5.97,10.39,7.86,23.58,5.61
				c18.76-3.2,6.58,12.65,6.58,12.65s-9.36,9.86-24.04,16.44c2.53-22.26-9.1-36.43-9.1-36.43s4.8-15.68,0-26.31
				c-4.81-10.62-18.72-20.49-21-26.81l-0.48-1.21c3.54,0.13,2.84-1.17,15.82-0.79c0,0,1.61-1.37,4.03-3.41l0.72,1.06
				c-0.36,5.5-0.71,7.81,3.55,6.92s6.04-5.68,7.99-1.42s2.13,7.64,6.22,5.51c4.08-2.14,2.3-5.15,4.79-6.66s2.13,2.39,4.62-2.76
				c2.48-5.15,3.55,1.07,5.86,1.07c2.3,0,9.76-6.93,24.68,6.92c1.24,2.67,3.74,4.11,4.24,9.77
				C465.28,359.99,466.47,358.96,466.68,358.73z"/>
			<path d="M467,358.34c0,0.15,0.09,0.47-0.02,0.83c-0.05,0.17-0.13,0.31-0.2,0.43l-0.12,0.21l-0.45,0.77c-0.3,0.51-0.63,1-0.94,1.5
				c-0.65,0.98-1.32,1.96-2.03,2.9c-0.69,0.95-1.42,1.87-2.16,2.79c-0.72,0.92-1.5,1.8-2.26,2.7l-0.12,0.14l-0.22,0.14
				c-0.93,0.59-1.88,1.15-2.84,1.68c-0.95,0.54-1.94,1.04-2.86,1.61c-0.92,0.57-1.82,1.19-2.5,1.98c-0.3,0.41-0.63,0.82-0.69,1.28
				c-0.04,0.5,0.35,0.82,0.59,1.08l-1.71,1.03c-1.55-2.02-3.45-3.71-5.7-4.74c-2.24-1.06-4.75-1.51-7.33-1.67
				c-2.59-0.17-5.24-0.12-7.94-0.14c-1.35-0.01-2.7-0.04-4.07-0.12l-1.98-0.1c-0.65-0.04-1.29-0.05-1.93-0.04
				c-2.54,0.02-5.1,0.31-7.08,1.33c-0.97,0.52-1.72,1.24-2.3,2.18c-0.3,0.46-0.55,1.01-0.79,1.57l-0.36,0.9l-0.18,0.47
				c-0.07,0.16-0.06,0.22-0.11,0.33c-0.04,0.1-0.07,0.2-0.06,0.24c0,0.05-0.04,0.14-0.01,0.12c0,0-0.02,0.02-0.01-0.03
				c0-0.01-0.02-0.02-0.03-0.02c0.01-0.01,0.01-0.01,0.01-0.01c0.01,0.05,0.51,0.26,1.05,0.36c1.12,0.23,2.5,0.28,3.94,0.55
				c0.36,0.06,0.74,0.15,1.13,0.26c0.37,0.11,0.69,0.22,1.04,0.33c0.69,0.25,1.37,0.52,2.08,0.92c0.68,0.41,1.49,0.86,2.08,2.02
				c0.3,0.56,0.36,1.37,0.2,1.99c-0.16,0.65-0.47,1.07-0.76,1.46c-0.6,0.73-1.23,1.19-1.86,1.61c-0.63,0.41-1.26,0.76-1.89,1.08
				c-1.27,0.63-2.54,1.16-3.83,1.64c-1.28,0.48-2.58,0.9-3.88,1.29l-0.49,0.15c-0.09,0.03-0.09,0.03-0.08,0.02
				c0.05-0.02,0.15-0.25,0.12-0.23c-0.01,0.01,0.02,0.19,0.1,0.36c0.04,0.09,0.1,0.19,0.16,0.29c0.05,0.09,0.13,0.2,0.24,0.33
				c1.5,2.02,3.35,3.7,5.61,4.68c2.25,1.02,4.81,1.35,7.4,1.45c2.59,0.13,5.27,0.18,7.9-0.2c1.31-0.16,2.63-0.47,3.99-0.74
				c1.35-0.28,2.75-0.56,4.26-0.39c0.37,0.03,0.76,0.13,1.14,0.21c0.38,0.14,0.77,0.25,1.13,0.46c0.75,0.38,1.4,1.1,1.74,1.9
				c0.36,0.81,0.37,1.66,0.3,2.4c-0.09,0.74-0.18,1.45-0.37,2.12c-0.77,2.7-2.25,4.99-3.85,7.18l-0.01,0.02l-0.01,0.01
				c-1.76,1.73-3.59,3.35-5.47,4.92c-1.88,1.56-3.79,3.11-5.79,4.53c-0.49,0.37-0.94,0.8-1.36,1.28c-0.42,0.48-0.83,0.99-1.3,1.41
				c-0.46,0.43-1,0.74-1.53,1.07c-0.52,0.33-1.07,0.62-1.61,0.93c-2.15,1.25-4.38,2.34-6.63,3.39l-2.17,1.02l0.15-2.5
				c0.09-1.56,0.28-3.11,0.3-4.67c-0.01-1.56,0.05-3.12-0.1-4.67c-0.14-3.11-0.65-6.2-1.35-9.23c-0.69-3.04-1.74-5.99-2.98-8.84
				c-1.23-2.83-2.76-5.66-4.54-8.04l-0.42-0.57l0.19-0.64c1.39-4.8,2.22-9.95,2.23-14.98c-0.02-2.52-0.27-5.04-0.89-7.44
				c-0.59-2.41-1.7-4.63-3-6.81c-1.29-2.18-2.7-4.35-4.33-6.35c-1.64-2-3.5-3.81-5.38-5.59c-1.89-1.79-3.79-3.57-5.48-5.6
				c-0.42-0.51-0.83-1.04-1.23-1.56c-0.38-0.56-0.76-1.1-1.1-1.69c-0.71-1.14-1.2-2.53-1.59-3.7l-0.29-0.88l0.86,0.07
				c0.63,0.05,1.25,0.04,1.88-0.03l1.95-0.3c1.33-0.22,2.67-0.34,4-0.41c1.33-0.06,2.66-0.13,3.99-0.16s2.66-0.04,3.99-0.04
				l-0.5,0.18c1.31-1.18,2.63-2.34,3.97-3.49l0.7-0.6l0.54,0.77l0.73,1.05l0.16,0.23l-0.02,0.3c-0.04,0.83-0.09,1.67-0.18,2.48
				s-0.21,1.62-0.2,2.38c0,0.38,0.05,0.74,0.18,1.02c0.13,0.27,0.32,0.47,0.62,0.58c0.61,0.21,1.45,0.11,2.22-0.02
				c1.55-0.32,2.85-1.28,4.14-2.36c0.35-0.26,0.67-0.55,1.13-0.79c0.21-0.13,0.49-0.23,0.79-0.3c0.3-0.03,0.69-0.05,1,0.09
				c0.68,0.24,1.04,0.69,1.37,1.07c0.3,0.39,0.56,0.83,0.76,1.19c0.42,0.76,0.75,1.55,1.07,2.31c0.3,0.76,0.59,1.52,0.94,2.07
				c0.17,0.3,0.35,0.46,0.49,0.61c0.15,0.08,0.27,0.17,0.51,0.16c0.46,0.02,1.21-0.25,1.85-0.57c0.66-0.32,1.23-0.73,1.65-1.26
				c0.42-0.53,0.7-1.18,0.97-1.97c0.37-1.56,1.95-3.93,4.35-3.17l0.52,0.23c0.08,0.01,0.06,0.02,0.16-0.02
				c0.19-0.12,0.45-0.44,0.65-0.77c0.44-0.67,0.77-1.37,1.19-2.16c0.21-0.38,0.45-0.76,0.78-1.12c0.16-0.18,0.37-0.35,0.61-0.49
				c0.26-0.13,0.6-0.2,0.92-0.14c0.63,0.14,0.96,0.53,1.27,0.85c0.3,0.33,0.55,0.67,0.81,0.99c0.49,0.62,1.06,1.26,1.61,1.27
				c0.59-0.02,1.44-0.42,2.22-0.68c1.59-0.58,3.29-0.97,5-0.99c3.45-0.07,6.76,1.12,9.69,2.75c2.95,1.65,5.56,3.78,8.06,6.01
				l0.05,0.05l0.03,0.07c0.53,1.14,1.38,2.16,2.12,3.29c0.75,1.13,1.33,2.4,1.7,3.71c0.38,1.3,0.49,2.71,0.65,3.97
				c0.08,0.64,0.21,1.28,0.41,1.85c0.09,0.28,0.23,0.56,0.36,0.68c0.06,0.05,0.07,0.05,0.05,0.05c0,0,0,0,0.02-0.02
				c0.01-0.01,0.02-0.01,0.04-0.03l0.08-0.07C466.51,358.21,466.9,358.24,467,358.34z M466.36,359.12c0.07,0.13,0.43,0.19,0.56,0.07
				c0.09-0.07,0.02-0.02,0.02-0.02l-0.04,0.03c-0.05,0.04-0.11,0.08-0.17,0.11c-0.12,0.07-0.27,0.12-0.44,0.14
				c-0.37,0.03-0.66-0.17-0.83-0.34c-0.33-0.36-0.45-0.72-0.56-1.06c-0.21-0.69-0.32-1.36-0.4-2.03c-0.15-1.37-0.22-2.62-0.57-3.87
				c-0.33-1.24-0.84-2.42-1.54-3.51c-0.68-1.1-1.56-2.13-2.15-3.4l0.09,0.12c-2.46-2.21-5.03-4.31-7.9-5.92
				c-2.85-1.61-6.06-2.69-9.31-2.58c-1.62,0.04-3.2,0.42-4.74,1l-1.17,0.44l-0.63,0.21c-0.22,0.06-0.49,0.1-0.75,0.11
				c-0.58-0.02-1.04-0.32-1.39-0.62c-0.36-0.31-0.64-0.64-0.91-0.97s-0.52-0.65-0.78-0.93c-0.25-0.28-0.55-0.52-0.75-0.55
				c-0.17-0.04-0.4,0.08-0.64,0.35c-0.23,0.26-0.44,0.59-0.63,0.93c-0.36,0.69-0.72,1.5-1.17,2.25c-0.24,0.37-0.46,0.76-0.95,1.12
				c-0.26,0.19-0.7,0.28-1.03,0.18c-0.29-0.08-0.49-0.18-0.64-0.23c-0.31-0.1-0.49-0.09-0.79,0.04c-0.29,0.13-0.59,0.33-0.8,0.57
				c-0.45,0.46-0.63,1.12-0.82,1.93c-0.19,0.8-0.45,1.76-1.01,2.59c-0.55,0.84-1.32,1.48-2.11,1.97c-0.81,0.47-1.6,0.96-2.82,1.04
				c-0.6,0.05-1.3-0.15-1.86-0.5c-0.51-0.37-0.92-0.82-1.16-1.25c-1.01-1.71-1.46-3.23-2-4.76c-0.13-0.4-0.25-0.7-0.38-1.03
				c-0.14-0.28-0.29-0.55-0.4-0.62c-0.13-0.29-0.97-0.01-1.63,0.42c-1.38,0.87-2.86,1.9-4.61,2.29c-0.84,0.17-1.72,0.37-2.72,0.1
				c-0.5-0.15-0.97-0.55-1.23-1c-0.27-0.46-0.38-0.92-0.48-1.37c-0.34-1.79-0.26-3.46-0.1-5.12l0.15,0.54l-0.71-1.07l1.23,0.17
				c-1.35,1.13-2.71,2.24-4.09,3.33l-0.24,0.19l-0.26-0.01c-2.63-0.13-5.27-0.28-7.89-0.19c-1.31,0.04-2.61,0.13-3.9,0.32
				c-1.26,0.2-2.64,0.54-4.03,0.52l0.57-0.8c0.55,1.24,1.03,2.29,1.79,3.29c0.35,0.51,0.79,0.98,1.16,1.48l1.24,1.45
				c1.7,1.9,3.43,3.84,5.12,5.82s3.42,3.93,5.17,5.86c1.75,1.94,3.58,3.84,5.13,6.01c1.53,2.17,2.74,4.66,3.46,7.28
				c0.73,2.61,1.05,5.3,1.13,7.96c0.07,2.67-0.12,5.32-0.46,7.95c-0.35,2.64-0.84,5.2-1.56,7.83l-0.24-1.21
				c2.11,2.71,3.69,5.54,5.08,8.54c1.35,3,2.47,6.1,3.23,9.3c0.76,3.19,1.35,6.45,1.49,9.74c0.15,1.64,0.08,3.28,0.08,4.93
				c-0.03,1.64-0.23,3.28-0.34,4.91l-2.03-1.48c2.17-1,4.33-2.04,6.41-3.23c0.52-0.3,1.05-0.57,1.56-0.89
				c0.51-0.31,1.02-0.63,1.6-0.83c1.14-0.44,2.46-0.63,3.47-1.32c2.04-1.31,4.04-2.7,5.94-4.21c1.89-1.52,3.75-3.11,5.41-4.86
				l-0.02,0.03c1.52-2.12,2.84-4.52,3.43-7c0.34-1.21,0.12-2.63-0.67-3.26c-0.37-0.32-0.74-0.54-1.2-0.74
				c-0.22-0.11-0.48-0.19-0.72-0.3c-0.27-0.07-0.53-0.17-0.82-0.24c-1.14-0.29-2.43-0.5-3.74-0.54c-1.31-0.06-2.62,0.14-3.95,0.36
				c-2.65,0.43-5.3,1.06-8.06,1.18c-2.74,0.08-5.59-0.22-8.29-1.3c-2.71-1.05-5.02-3.01-6.77-5.22c-0.11-0.12-0.23-0.28-0.36-0.47
				c-0.12-0.18-0.24-0.37-0.34-0.58c-0.2-0.42-0.4-0.9-0.4-1.56c0-0.33,0.07-0.71,0.24-1.07c0.18-0.36,0.46-0.67,0.75-0.87
				c0.28-0.2,0.6-0.33,0.82-0.41l0.47-0.16c1.25-0.42,2.47-0.88,3.68-1.36c1.21-0.48,2.39-1,3.51-1.59
				c0.56-0.29,1.08-0.61,1.57-0.94c0.48-0.33,0.92-0.7,1.16-1.01c0.11-0.15,0.18-0.29,0.17-0.3c-0.02-0.03,0.02,0.07,0,0.04
				c0.01-0.06-0.36-0.41-0.82-0.64c-0.9-0.5-2.24-0.96-3.28-1.14c-1.18-0.22-2.5-0.25-4-0.54c-0.75-0.18-1.62-0.3-2.6-1.17
				c-0.12-0.12-0.23-0.24-0.34-0.36c-0.1-0.14-0.19-0.3-0.27-0.46c-0.19-0.33-0.24-0.65-0.29-0.98c-0.07-0.35-0.01-0.59,0.01-0.88
				c0.02-0.29,0.09-0.52,0.16-0.73c0.06-0.2,0.15-0.48,0.21-0.62l0.18-0.46l0.39-0.96c0.3-0.66,0.6-1.34,1.03-2
				c0.82-1.33,2.06-2.53,3.47-3.25c2.83-1.44,5.76-1.6,8.53-1.61c0.7-0.01,1.39,0.02,2.08,0.07l2.02,0.13
				c1.3,0.1,2.62,0.15,3.94,0.21c2.65,0.11,5.35,0.14,8.09,0.41c2.73,0.26,5.56,0.84,8.13,2.16c2.57,1.3,4.76,3.31,6.3,5.65
				l-1.71,1.03c-0.28-0.75-0.02-1.6,0.19-2.2c0.18-0.64,0.44-1.21,0.77-1.72c0.66-1.02,1.43-1.92,2.24-2.77
				c0.81-0.85,1.67-1.64,2.58-2.35c0.91-0.72,1.87-1.34,2.86-1.91l-0.34,0.28c0.78-0.86,1.54-1.74,2.34-2.59
				c0.79-0.86,1.57-1.71,2.37-2.56c0.79-0.85,1.6-1.69,2.41-2.53l1.22-1.25l0.62-0.62l0.15-0.14c0.01,0,0.02,0.03,0.06,0.08
				C465.92,359.11,466.18,359.2,466.36,359.12z"/>
		</g>
		<g>
			<path class="st2" d="M466.71,358.69c0,0,0,0-0.01,0.01c0,0.01-0.01,0.02-0.02,0.03c-0.21,0.23-1.4,1.26-1.85-3.88
				c-0.5-5.66-3-7.1-4.24-9.77c-14.92-13.85-22.38-6.92-24.68-6.92c-2.31,0-3.38-6.22-5.86-1.07c-2.49,5.15-2.13,1.25-4.62,2.76
				s-0.71,4.52-4.79,6.66c-4.09,2.13-4.27-1.25-6.22-5.51s-3.73,0.53-7.99,1.42s-3.91-1.42-3.55-6.92l-0.72-1.06
				c5.69-4.8,15.8-13.31,19.81-16.4c9.08-7,15.3-7,26.2-2.85c19.45,12.19,19.97,17.12,23.86,26.97
				C472.41,348.02,472.37,351.05,466.71,358.69z"/>
			<path d="M466.69,359.02l-0.03,0.04l0.15-0.35c0,0.11-0.05,0.24-0.12,0.34l-0.06,0.07l-0.06,0.06c-0.05,0.04-0.1,0.09-0.16,0.13
				c-0.11,0.08-0.25,0.15-0.43,0.18c-0.36,0.08-0.72-0.1-0.92-0.27c-0.39-0.36-0.56-0.71-0.72-1.05c-0.33-0.68-0.58-1.35-0.8-2.03
				c-0.43-1.42-0.68-2.52-0.95-3.7c-0.27-1.13-0.25-2.44-0.78-3.65c-0.12-0.31-0.28-0.59-0.45-0.87c-0.14-0.3-0.67-0.34-0.97-0.55
				c-0.47-0.51-0.84-1.14-1.2-1.81l0.25,0.34c-2.52-2.08-5.12-4.05-7.92-5.53c-2.79-1.48-5.8-2.44-8.76-2.36
				c-1.49,0.03-2.91,0.38-4.39,0.91l-1.17,0.43l-0.72,0.23c-0.09,0.04-0.34,0.07-0.5,0.1c-0.19,0.02-0.35,0.06-0.57,0.05
				c-0.96-0.05-1.63-0.52-2.06-0.89c-0.45-0.39-0.75-0.77-1.03-1.11c-0.27-0.35-0.51-0.67-0.72-0.9c-0.18-0.25-0.43-0.35-0.18-0.26
				c0.13,0.03,0.31-0.02,0.35-0.06c0.03-0.01-0.02-0.01-0.09,0.08c-0.15,0.15-0.34,0.42-0.51,0.72l-0.58,1.06
				c-0.21,0.39-0.44,0.77-0.71,1.17c-0.14,0.2-0.26,0.4-0.47,0.62c-0.17,0.2-0.41,0.46-0.77,0.7c-0.38,0.27-1.14,0.41-1.63,0.24
				c-0.4-0.13-0.61-0.26-0.7-0.29c-0.1-0.05-0.12-0.05-0.15-0.06c-0.02,0.01-0.04,0-0.07,0c-0.04,0.01-0.08,0.03-0.12,0.03
				c-0.21,0.07-0.48,0.21-0.66,0.37c-0.38,0.29-0.63,0.85-0.88,1.65c-0.26,0.78-0.59,1.77-1.26,2.53c-0.66,0.77-1.53,1.23-2.35,1.58
				c-0.83,0.35-1.61,0.7-2.62,0.84c-0.5,0.09-1.09,0.02-1.66-0.2c-0.52-0.25-1-0.62-1.31-1c-1.54-1.49-0.51-3.59-1.46-4.99
				c-0.3-0.73-0.62-1.54-1.18-1.82c-0.53-0.29-1.31,0.2-1.96,0.63c-1.33,0.95-2.71,2.06-4.45,2.53c-0.42,0.12-0.85,0.17-1.3,0.29
				c-0.44,0.13-0.95,0.42-1.64,0.44c-0.36-0.03-0.74-0.1-1.06-0.36c-0.34-0.21-0.55-0.57-0.73-0.87c-0.33-0.63-0.42-1.19-0.49-1.7
				c-0.19-1.98,0.03-3.58,0.1-5.25l0.25,0.91l-0.73-1.06l-0.75-1.09l1.01-0.85c3.44-2.88,6.93-5.7,10.43-8.51l5.27-4.18l2.63-2.09
				c0.88-0.69,1.73-1.41,2.69-2.06c0.93-0.67,1.91-1.28,2.9-1.87c1-0.58,2.04-1.11,3.17-1.43c1.12-0.34,2.27-0.56,3.39-0.81
				c0.57-0.11,1.12-0.26,1.69-0.35c0.28-0.05,0.57-0.11,0.85-0.17c0.29-0.06,0.57-0.08,0.86-0.13c2.31-0.39,4.7-0.09,6.85,0.72
				c2.15,0.82,4.27,1.51,6.43,2.2l0.03,0.01l0.07,0.04c1.34,0.78,2.71,1.51,4.03,2.32c0.66,0.41,1.31,0.84,1.95,1.28
				c0.65,0.43,1.13,1.1,1.71,1.62c1.19,0.99,2.38,1.99,3.73,2.79c0.67,0.41,1.41,0.74,2.1,1.16c0.69,0.41,1.25,0.98,1.81,1.54
				c0.57,0.55,1.06,1.2,1.57,1.8c0.48,0.64,0.93,1.31,1.35,1.98c0.39,0.7,0.83,1.36,1.16,2.09c0.38,0.69,0.72,1.41,1.06,2.11
				c1.38,2.83,2.3,5.78,3.41,8.65l0.02,0.06v0.05c0.08,1.49,0.16,3,0.06,4.51c-0.07,1.52-0.36,3.04-0.9,4.46
				c-0.53,1.43-1.22,2.78-1.97,4.09C468.42,356.51,467.58,357.75,466.69,359.02z M466.33,357.89c1.73-2.3,3.55-4.75,4.58-7.48
				c0.52-1.36,0.82-2.8,0.9-4.27c0.07-1.46-0.03-2.94-0.14-4.43l0.02,0.11c-1.18-2.86-2.21-5.78-3.67-8.44
				c-1.46-2.69-3.72-4.74-5.87-6.79c-1.18-0.93-2-2.25-2.98-3.48c-0.53-0.55-1.11-1.06-1.71-1.54s-1.26-0.88-1.91-1.28
				c-0.67-0.38-1.42-0.64-2.06-1.06c-0.64-0.43-1.26-0.86-1.88-1.32l-3.74-2.7l0.1,0.05c-2.03-0.89-4.15-1.65-6.35-1.89
				c-2.2-0.25-4.28-0.59-6.45-0.77c-1.08-0.09-2.18,0.01-3.23,0.29c-1.06,0.27-2.03,0.8-2.96,1.34c-0.92,0.58-1.86,1.09-2.77,1.67
				c-0.91,0.58-1.81,1.19-2.67,1.87c-0.87,0.64-1.71,1.4-2.56,2.12l-2.54,2.19l-5.08,4.38c-3.4,2.89-6.8,5.79-10.26,8.61l0.27-1.94
				l0.71,1.06l0.28,0.42l-0.03,0.5c-0.1,1.64-0.3,3.38-0.17,4.72c0.03,0.32,0.1,0.59,0.16,0.7c0.09,0.08-0.02,0.06,0.05,0.35
				c0.1,0.25,0.44,0.6,0.83,0.67c0.38,0.07,0.78-0.03,1.17-0.07c0.77-0.13,1.52-0.4,2.23-0.77c0.72-0.38,1.38-0.87,2.06-1.35
				c0.35-0.24,0.69-0.5,1.11-0.69c0.39-0.21,0.97-0.32,1.47-0.1c0.99,0.47,1.33,1.37,1.73,2.1c0.2,0.38,0.35,0.77,0.56,1.14
				c0.2,0.37,0.52,0.7,0.83,1.02c0.68,0.62,0.94,1.36,1.16,1.99c0.1,0.35,0.2,0.59,0.33,0.86c0.14,0.21,0.37,0.42,0.71,0.45
				c0.67,0.09,1.44-0.32,2.05-0.77c0.63-0.46,1.1-1.06,1.4-1.65c0.31-0.6,0.52-1.22,0.72-2.03c0.11-0.41,0.22-0.86,0.42-1.34
				c0.22-0.48,0.5-1,0.93-1.4c0.42-0.41,0.87-0.71,1.43-0.95l0.47-0.15c0.18-0.03,0.37-0.05,0.55-0.07c0.39,0,0.78,0.08,1.06,0.19
				c0.3,0.11,0.46,0.17,0.46,0.17c-0.08-0.06-0.41-0.01-0.44,0.03c-0.03,0,0.03-0.04,0.11-0.17c0.07-0.09,0.16-0.25,0.25-0.4
				c0.17-0.3,0.35-0.64,0.51-1l0.25-0.54c0.09-0.2,0.19-0.42,0.3-0.63c0.23-0.43,0.48-0.86,0.89-1.33c0.19-0.23,0.49-0.49,0.87-0.7
				c0.41-0.22,1.02-0.36,1.56-0.25c0.54,0.1,0.91,0.34,1.18,0.54c0.28,0.21,0.48,0.41,0.66,0.6c0.35,0.38,0.63,0.72,0.88,1.02
				c0.24,0.3,0.48,0.56,0.66,0.72c0.19,0.17,0.27,0.15,0.16,0.13c-0.02,0,0.03-0.02,0.05-0.02c0.04-0.02,0.01,0.02,0.11-0.02
				l0.47-0.16l1.17-0.44c1.64-0.62,3.5-1.04,5.35-1.07c1.84-0.01,3.7,0.2,5.39,0.8c1.72,0.53,3.33,1.29,4.84,2.17
				c3.01,1.78,5.6,4.04,8.04,6.4l0.19,0.18l0.06,0.16c0.21,0.54,0.55,1.03,0.83,1.62c0.07,0.34-0.07,0.85,0.17,1.09
				c0.21,0.26,0.42,0.53,0.67,0.78c0.92,1.01,2.05,2.16,2.47,3.59c0.2,0.7,0.32,1.43,0.34,2.14c0.02,0.74-0.04,1.39-0.09,2.02
				c-0.05,0.64-0.05,1.28,0.03,1.86c0.05,0.28,0.14,0.56,0.22,0.68c0.04,0.04,0.01,0.04-0.02,0.05c-0.01,0.01,0.01,0.01,0.03,0
				c0.01,0,0.03-0.01,0.04-0.02c0.01,0,0.02-0.01,0.03-0.02c-0.01,0.01,0.04-0.04-0.02,0.02c-0.06,0.07-0.1,0.19-0.09,0.28
				l0.15-0.35L466.33,357.89z"/>
		</g>
		<g>
			<path class="st2" d="M477.21,478.17c-0.25,29.57-17.63,24.12-17.63,24.12l-2.09,3.26c0,0-21.56,26.96-46.67,52.83
				c-27.4,15.47-38.81,41.86-40.08,43.12c-1.27,1.27,0,25.62,3.04,25.12c3.04-0.51,8.88,2.03,10.4,2.03s1.78,11.41,0,14.71
				c-1.77,3.3-3.3,3.3-13.44,0c-10.15-3.3-5.84,1.01-10.4-4.82c-4.57-5.84-27.14-4.31-32.73-8.88
				c-5.58-4.57-13.95-13.19-16.23-15.98c-2.28-2.79-7.61-2.79-13.74-6.09c-6.13-3.3-4.27-3.8-2.75-11.41
				c1.52-7.61,6.34-3.3,23.09-37.93c5.99-38.02,11.92-35.51,15.47-45.4c3.09-8.61,1.01-18.52,1.01-18.52l25.11-28.45
				c-5.84,6.45-24.16,26.54-28.4,28.45c-5.08,2.28-24.61-0.76-31.2,0.26c-1.55,0.24-4.7,1.36-8.7,2.84
				c-10.59,3.91-27.14,10.24-35.72,8.88c-0.62-0.09-1.19-0.23-1.72-0.42c0,0,0,0-0.01,0c-1.19-0.4-2.15-1.03-2.81-1.92
				c-6.6-8.88-9.19-15.94-3.55-42.87c6-28.67,20.7-23.64,30.18-44.13c8.86-19.13,23.85-38.81,31.46-44.4
				c7.61-5.58,19.28-22.57,19.28-22.57s0,0,19.27-9.13c19.28-9.13,17-4.82,28.67-2.79c3.01,0.53,4.76,0.74,5.99,0.79l0.48,1.21
				c2.28,6.32,16.19,16.19,21,26.81c4.8,10.63,0,26.31,0,26.31s11.63,14.17,9.1,36.43c14.68-6.58,24.04-16.44,24.04-16.44
				s12.18-15.85-6.58-12.65c-13.19,2.25-19.06,0.36-23.58-5.61c-0.78-1.04-1.02-2.27,0.21-2.66c6.15-1.93,18.13-6.45,7.43-9.69
				c-3.23-0.98-8.6,0-7.08-3.8c1.52-3.79,2.78-8.31,15.43-7.33c10.93,0.84,20.04-1.42,26.52,7.6l0.01,0.01
				c0.98,1.96,4.44,3.26,6.14,5.48c1.04,0.71,1.95,1.48,2.76,2.29c0.1,0.1,0.2,0.2,0.29,0.3c0.17,0.18,0.34,0.36,0.5,0.55
				c0.05,0.05,0.09,0.1,0.13,0.15c8.13,9.47,3.39,23.91,2.64,26.02c-0.01,0.03-0.02,0.07-0.04,0.1c0,0.01,0,0.01-0.01,0.02
				c-0.03,0.09-0.05,0.14-0.05,0.14l-0.08,0.13l-28.45,45l20.49-0.78C453.61,458.46,477.47,448.6,477.21,478.17z"/>
			<path d="M453.48,457.57l-19.72,0.8c7.19-11.51,21.16-33.38,28.18-44.61c0.02-0.02,0.04-0.05,0.05-0.08
				c0.02-0.02,0.03-0.05,0.04-0.07c0.02-0.04,0.03-0.08,0.03-0.12v-0.02c2.99-8.61,3.46-19.25-2.77-26.56
				c-1.06-1.21-2.26-2.27-3.57-3.18c-1.71-2.26-4.66-3.13-6.14-5.49c-6.72-9.81-19.87-6.94-30.1-8.1
				c-4.76-0.28-10.71,1.2-12.46,6.33c-0.14,0.34-0.31,0.71-0.47,1.09c-0.03-18.04-13.11-21.99-23.77-39.92
				c-7.12,0.31-13.76-3.87-20.83-3.18c-11.91,3.09-22.96,9.55-34.25,14.31c-6.73,9.69-14.23,18.71-23.41,26.09
				c-11.59,12.08-20.69,26.35-27.98,41.37c-4.2,10.22-14.06,15.46-21.17,23.45c-10.6,13.11-19.94,55.51-2.79,66.39
				c0.46,0.29,0.94,0.56,1.44,0.81c16.37,2.93,31.18-8.45,46.82-11.1c1.2-0.21,2.41-0.36,3.63-0.45c8.95-0.03,18.4,0.93,27.17-1.12
				c2.44-1.85,4.76-3.84,6.99-5.94c-1.77,1.86-3.5,3.61-5.14,5.19c3.93,16.22-5.47,25.56-10.57,39.54
				c-2.6,7.89-4.36,16.28-5.74,24.47c-5.91,12.83-13.54,24.43-22.47,35.24c-6.48,16.42,1.95,15,13.74,20.1
				c0.3,0.13,0.61,0.26,0.91,0.4c18.02,19.36,18.24,18.81,32.5,21.14c0.46,0.08,0.94,0.16,1.44,0.23c0.03,0.01,0.06,0.02,0.09,0.02
				c0.29,0.05,0.59,0.1,0.89,0.15c3.25,0.56,7.16,1.28,12.01,2.38c2.99,0.9,3.75,3.22,5.72,5.24c0.46,0.46,1.41,0.67,1.95,0.64
				c6.06,0.21,11.4,4,17.56,3.84c0.92,0.1,1.73-0.23,2.43-0.87c4.21-3.84,4.61-18.83,0.47-19.32c-3.31-0.64-6.57-2.26-10.07-2.05
				c-2.38-6.84-2.66-15.48-2.14-22.85c0,0-0.01,0.04-0.03,0.06c0,0-0.13,0.2-0.17,0.21c9.49-17.49,22.38-33.38,39.87-43.33
				c8.33-8.35,15.82-17.44,23.51-26.33c8.6-9.43,18.04-18.39,25.03-29.12c13.82,2.35,18.09-14.65,17.52-25.56
				C479.12,463.13,468.15,451.14,453.48,457.57z M406.5,380.98c1.77,1.89,4.49,1.42,6.57,1.95c10.86,2.35-2.58,6.39-6.48,7.73
				c-1.41,0.84-1.81,1.88-1.59,2.96c-0.23-0.34-0.47-0.67-0.7-0.99c1.17-4.49,1.85-8.38,2.12-11.79
				C406.43,380.89,406.47,380.93,406.5,380.98z M406.89,396.61c1.77,1.77,4.31,3.28,5.8,3.84c9.28,4.51,37.92-8.56,23.76,11.87
				c-0.01,0.01-0.01,0.01-0.02,0.01c-6.76,6.19-14.42,11.51-22.68,15.49C414.55,417.05,412.34,405.95,406.89,396.61z M459.05,500.57
				c-0.35,0.51-2.08,3.14-2.61,3.93l-0.01,0.02c-14.56,18.39-29.57,36.29-46.29,52.75c0.05-0.03,0.09-0.05,0.14-0.08l-0.26,0.2
				c0.04-0.04,0.08-0.08,0.12-0.12c-17.46,9.8-31.02,25.54-40.39,43.02c-2.09,5.32-0.48,11.54-0.27,17.14
				c0.84,4.33,0.29,11.51,6.7,10.58c2.36,0.32,4.78,1.41,7.2,1.84c-0.01-0.09-0.03-0.19-0.04-0.28c0.07,0.16,0.31,0.29,0.53,0.36
				c0.1,0.02,0.21,0.03,0.31,0.04c-0.06,0.02-0.18,0-0.31-0.04c-0.17-0.02-0.33-0.05-0.49-0.08c3,22.24-5.72,11.77-19.56,10.31
				c0.01,0.02,0.03,0.04,0.04,0.06c-0.01-0.01-0.1-0.05-0.16-0.07c0.04,0,0.08,0,0.12,0.01c-7.73-11.64-24.51-5.76-35.24-11.88
				c-6.51-5.15-11.85-11.72-17.88-17.29c-5.11-2.84-12.15-2.94-15.85-7.57c0.27-5.95,2.59-11.53,7.05-15.7
				c7.14-8.94,12.15-19.18,17.14-29.36c1.89-10.97,3.12-22.33,7.73-32.55c6.15-9.45,12.07-19.73,8.96-31.46
				c-0.13,0.17-0.25,0.34-0.38,0.51l0.26-0.97c0.04,0.15,0.09,0.31,0.12,0.46c6.64-8.79,16.97-20.12,24.16-28.44l-0.18-0.16
				l-0.36-0.32c-4.83,4.96-9.39,10.45-14.22,15.59c-4.57,4.85-9.36,9.4-14.85,12.93c-8.62,1.78-17.26-1.54-25.96-1.21
				c-17.01,0.86-32.53,14.3-49.96,11.54l-0.22,0.61h-0.28l0.47-0.62c-14.88-12.64-6.97-36.58-2.59-52.86
				c4.01-12.61,17.28-17.82,24.03-28.58c5.23-9.32,9.54-19.24,15.8-27.99c10.19-16.83,27.27-27.52,37.5-44.3
				c-0.08,0.04-0.16,0.07-0.24,0.11l0.38-0.33c-0.04,0.07-0.09,0.15-0.14,0.22c11.02-4.9,21.36-11.96,33.14-14.81
				c6.72-0.54,12.87,3.54,19.7,3.67c-0.1-0.16-0.19-0.32-0.28-0.48l0.69,0.49c-0.14,0-0.28,0-0.41-0.01
				c12.07,21.05,30.2,22.91,21.34,53.66c7.98,10.66,10.35,24.61,8.77,37.63c10.53-5.48,31.06-14.79,28.65-28.96
				c-8.61-7.03-25.04,6.04-33.41-8.54c11.6-2.83,19.87-11.05,2.29-12.64c-0.81-0.21-1.6-0.26-1.5-1.02
				c1.62-9.35,12.26-7.72,19.46-7.49c7.67-0.08,16.65-0.09,21.35,7.01c12.74,10.02,17.9,17.65,12.55,34.35l-0.41,0.1v0.01l0.29,0.2
				c0.01-0.03,0.02-0.07,0.04-0.11c-0.01,0.03-0.02,0.06-0.02,0.08v0.04l-0.01-0.01h-0.01l-0.01,0.03
				c-7.06,11.27-20.73,32.89-28.21,44.66c-0.01,0-0.01,0.01-0.01,0.01c-0.22,0.34-0.43,0.67-0.63,0.99l0.7-0.03
				c0.04,0,20.53-0.48,20.56-0.48l0.08-0.28c14.18-6.16,24.38,5.35,22.94,19.33C477.12,488.19,472.39,505.02,459.05,500.57z
				 M253.79,506.88c-0.16-0.02-0.32-0.05-0.48-0.08l0.5,0.09C253.8,506.89,253.8,506.88,253.79,506.88z"/>
		</g>
		<g>
			<path d="M449.63,378.47l0.01,0.01l-0.03-0.02c1.73,1.26,3.5,2.51,5.25,3.84c0.87,0.66,1.73,1.35,2.56,2.09s1.63,1.47,2.44,2.33
				l-0.07-0.07l1.26,1.42c0.38,0.49,0.79,0.95,1.14,1.46c0.73,1,1.4,2.06,1.94,3.19c1.12,2.24,1.86,4.73,2.04,7.25
				c0.02,0.63,0.08,1.26,0.07,1.89c-0.03,0.63-0.03,1.26-0.09,1.88c-0.08,0.62-0.14,1.25-0.25,1.86c-0.15,0.61-0.32,1.2-0.54,1.79
				c-0.48,1.15-1.04,2.26-1.65,3.31c-0.56,1.08-1.11,2.13-1.63,3.21l0.04-0.18c0,0.11-0.06,0.24-0.14,0.32l0.09-0.13
				c-0.35,0.65-0.66,1.24-1.01,1.86l-1.05,1.82l-2.14,3.62l-0.82-0.57c0.87-1.08,1.65-2.23,2.37-3.41c0.35-0.6,0.7-1.19,1.01-1.81
				c0.31-0.61,0.63-1.26,0.88-1.86l0.09-0.13c-0.07,0.06-0.12,0.19-0.12,0.28l0.04-0.18c0.41-1.09,0.92-2.15,1.11-3.31
				c0.26-1.14,0.32-2.31,0.46-3.44c0.03-0.57,0.09-1.12,0.19-1.67l0.21-1.65c0.06-0.55,0.06-1.1,0.1-1.65
				c0.02-0.55-0.03-1.09-0.04-1.64c-0.15-2.18-0.69-4.32-1.61-6.32c-0.23-0.5-0.47-1-0.75-1.48c-0.25-0.49-0.55-0.96-0.85-1.44
				c-0.29-0.48-0.64-0.92-0.96-1.39l-1.01-1.29l-0.07-0.07c-0.63-0.75-1.37-1.56-2.09-2.32c-0.74-0.75-1.5-1.5-2.28-2.24
				c-1.55-1.48-3.21-2.87-4.76-4.43l-0.03-0.02l-0.01-0.01L449.63,378.47z"/>
		</g>
		<path class="st3" d="M466.71,358.69c0,0,0,0-0.01,0.01"/>
		<path class="st3" d="M416.73,374.71c14.09,0.49,34.45,1.98,17.96,4.45c-10.05-2.47-12.53-5.69-10.05-2.47"/>
		<path class="st4" d="M407.38,508c-13.94,8.15-31.92,20.6-37.09,35.27c-3.79,3.4-8.01,6.51-11.97,9.7
			c4.75-8.29,10-15.91,12.92-21.19c2.63-2.39,5.25-5.08,7.82-7.95l-0.49,1.21l2.22-0.14C389.77,519.74,397.61,511.54,407.38,508z"/>
		<path class="st3" d="M368.07,427.5c0.18,0.01,0.37,0.02,0.56,0.03c6.96,0.46,14.95,1.44,24.17,3.14
			c14.57,2.04,45.79,6.7,19.55,46.33c-3.97,4.94-17.36,28.75-32.72,46.18c-0.19,0.21-0.37,0.42-0.56,0.63l-0.01,0.01v0.01"/>
		<path class="st3" d="M341.75,633.06c0,0,5.26,0.71,8.51-0.35c1.46,1.56,4.37,0.76,8.45-0.11c3.79,0.58,5.83-1.16,4.66-6.41
			c-6.41-1.46-4.08-2.92-8.74-5.83c0-4.08-0.87-11.07-6.12-16.32c-3.5-8.45-0.29-13.4-0.29-23.6c0.3-8.53,4.9-18.4,10.1-27.47"/>
		<path class="st3" d="M294.48,437.05c-0.97-0.79-2.15-1.67-3.67-2.6"/>
		<g>
			<path d="M419.77,467.03c3.05-0.14,6.08-0.21,9.11-0.39c3.02-0.17,6.03-0.35,9-0.71c1.48-0.19,2.95-0.4,4.38-0.71
				c1.44-0.27,2.83-0.68,4.03-1.22c0.62-0.26,1.09-0.62,1.46-0.94c0.11-0.17,0.27-0.31,0.31-0.43c0.02-0.05,0.04-0.01,0.08-0.14
				l0.11-0.31c0.07-0.2,0.15-0.41,0.24-0.6c0.73-1.57,1.83-2.99,3.49-3.7l0.59,0.81c-0.68,1.24-1.21,2.53-1.51,3.82
				c-0.04,0.16-0.08,0.32-0.11,0.48l-0.05,0.24c-0.01,0.06-0.08,0.27-0.13,0.39c-0.19,0.62-0.54,1.05-0.9,1.49
				c-0.75,0.71-1.56,1.21-2.34,1.54c-3.16,1.36-6.27,1.68-9.37,1.97c-3.1,0.24-6.18,0.24-9.25,0.13c-1.53-0.04-3.07-0.16-4.59-0.28
				c-1.53-0.11-3.05-0.27-4.57-0.45L419.77,467.03z"/>
		</g>
		<path class="st3" d="M444.33,469.2c0,0-4.05,5.86,0,7.12c6.56-0.42,8.94,0,10.89-4.19c-0.42-4.47,1.82-11.31,3.91-2.93
			c3.63,3.91,2.65,3.91,0,8.1c-4.47,3.91-1.8,3.91-7.11,6.14c-2.52,0.7-14.25,8.66-1.68,5.86s16.2-9.35,17.17-9.35
			c-7.26,6-19.41,11.31-19.41,11.31s-11.08,8.89,0.05,5.51c0.46-0.14,0.95-0.3,1.49-0.48c3.65-1.24,6.32-2.15,8.27-2.81
			c1.77-0.6,2.94-1,3.72-1.27c1.55-0.53,1.55-0.53,1.55-0.53l5.72-5.72l-4.47,5.86l-12.16,4.61c0,0-14.08,10.05,1.83,5.58
			c7.26-2.09,12.29-6.42,12.29-6.42l3.07-4.75"/>
		<g>
			<polygon points="380.56,522.95 379.07,523.81 379.28,523.27 379.63,523.18 			"/>
			<path d="M412.86,505.87c-13.09,9.59-35.38,23.14-40.97,38.46c-3.44,2.54-8.16,6.8-11.98,8.6l-1.59,0.04
				c3.96-3.19,8.18-6.3,11.97-9.7c5.17-14.67,23.15-27.12,37.09-35.27c-9.77,3.54-17.61,11.74-26.59,16.9l-2.22,0.14l0.49-1.21
				v-0.01l1.08,0.27c8.91-7.61,19.08-16.64,31.03-18.2L412.86,505.87z"/>
		</g>
		<g>
			<path d="M368.63,427.53v0.06l-0.56-0.09l-0.43-0.07c-0.79-7.52-4.69-14.28-8.42-20.34c-7.39-6.41-9.37-16.08-12.05-24.88
				c-0.68-0.71-1.21-1.43-1.61-2.16c-3.85-7,4.38-14.72,8.76-20.09l0.83,0.6c-3.31,5.81-12.7,13.75-5.95,20.25
				c2.94,6.51,2.9,13.74,7.42,19.49C362.84,407.85,368.31,417.13,368.63,427.53z"/>
		</g>
		<g>
			<path d="M383.29,363.81c0.03,1.28,0.06,2.58,0.14,3.87c0.09,1.29,0.16,2.57,0.31,3.84c0.14,1.27,0.35,2.53,0.61,3.75
				c0.27,1.21,0.63,2.42,1.16,3.42l0.19,0.37l-0.12,0.4c-0.55,1.85-0.49,3.92-0.01,5.87c0.48,1.96,1.39,3.83,2.64,5.39l0.08,0.1
				l0.03,0.06c0.65,1.27,1.48,2.51,2.34,3.73c0.84,1.23,1.77,2.42,2.67,3.61l-0.74,0.67c-1.1-1.08-2.11-2.22-3.1-3.39
				c-0.97-1.19-1.9-2.42-2.71-3.8l0.11,0.16c-0.79-0.86-1.45-1.82-1.98-2.84s-0.97-2.1-1.25-3.22c-0.58-2.23-0.69-4.65,0.04-6.95
				l0.07,0.77c-0.69-1.31-1-2.66-1.27-3.98c-0.27-1.33-0.37-2.66-0.44-3.99s-0.11-2.65-0.05-3.96c0.05-1.32,0.11-2.63,0.28-3.95
				L383.29,363.81z"/>
		</g>
		<g>
			<path d="M363.91,476.02c-2.73,3.52-5.4,7.08-7.97,10.68c-1.29,1.8-2.52,3.63-3.69,5.48c-1.2,1.82-2.31,3.71-3.15,5.57l-0.31,0.69
				c-0.1,0.23-0.14,0.44-0.21,0.66l-0.21,0.68l-0.25,0.89c-0.34,1.12-0.7,2.2-1.07,3.27c-0.37,1.07-0.72,2.14-1.21,3.15
				c-0.48,1.01-1.07,1.98-1.58,2.98c-2.05,3.99-4.26,7.89-6.45,11.81l0,0l-0.15,0.19c-2.04,2.68-4.04,5.31-5.84,8.06
				c-0.89,1.38-1.8,2.75-2.64,4.17c-0.88,1.4-1.67,2.86-2.62,4.3l-0.95-0.32c0.21-1.75,0.67-3.47,1.36-5.09
				c0.66-1.63,1.5-3.19,2.51-4.64c0.99-1.45,2.11-2.82,3.37-4.05s2.61-2.35,4.2-3.21l-0.15,0.19l0,0l3.97-12.81
				c0.34-1.06,0.59-2.16,0.94-3.21c0.34-1.05,0.82-2.05,1.25-3.06c0.44-1.01,0.86-2.02,1.24-3l0.26-0.7l0.35-0.9
				c0.12-0.3,0.24-0.62,0.38-0.9l0.43-0.81c2.34-4.2,5.23-7.59,8.19-11c2.95-3.39,6.06-6.62,9.28-9.73L363.91,476.02z"/>
		</g>
		<g>
			<path d="M436.37,506.4c-2.53,3.37-5.16,6.64-7.79,9.9l-7.96,9.71c-2.67,3.21-5.26,6.48-7.95,9.66c-2.68,3.2-5.33,6.37-7.88,9.68
				l0,0l-0.08,0.11c-1.31,2.26-2.93,4.23-4.58,6.16c-1.67,1.92-3.47,3.69-5.31,5.43c-1.83,1.75-3.72,3.44-5.65,5.08
				c-1.95,1.62-3.92,3.22-6.04,4.66l-0.69-0.72c1.51-2.07,3.16-3.99,4.84-5.9c1.69-1.89,3.41-3.73,5.19-5.53
				c1.77-1.8,3.56-3.58,5.47-5.23c1.92-1.64,3.87-3.25,6.05-4.65l-0.08,0.11l0,0c1.47-4.07,3.78-7.71,6.19-11.18
				c2.42-3.48,5.11-6.75,7.86-9.94c2.75-3.2,5.6-6.3,8.53-9.32c2.95-3,5.96-5.96,9.16-8.72L436.37,506.4z"/>
		</g>
		<g>
			<path d="M372.99,479.21c-1.17,3.41-2.56,6.7-4,9.97c-1.46,3.26-2.97,6.49-4.58,9.67c-1.58,3.19-3.26,6.34-4.91,9.5
				c-1.66,3.16-3.29,6.32-4.99,9.46l-0.09,0.17l-0.1,0.13c-2.21,2.79-4.3,5.85-6.29,8.89c-2,3.06-3.82,6.22-5.57,9.43
				c-1.73,3.22-3.25,6.54-4.64,9.92c-1.35,3.4-2.44,6.88-3.31,10.45l-0.99-0.16c0.45-3.71,1.22-7.4,2.33-10.99
				c1.13-3.57,2.48-7.09,4.06-10.49c1.57-3.41,3.35-6.71,5.25-9.94c1.92-3.24,3.96-6.33,6.26-9.41l-0.19,0.3
				c1.59-3.19,3.23-6.36,4.85-9.53c1.63-3.17,3.23-6.36,4.93-9.49c1.67-3.15,3.43-6.25,5.26-9.32c1.85-3.06,3.74-6.09,5.84-9.02
				L372.99,479.21z"/>
		</g>
		<path class="st3" d="M255.55,506.08"/>
		<path class="st3" d="M342.54,634.58"/>
		<path class="st5" d="M342.58,638.34c0.29,6.9,0.32,74.82,0.32,86.83l-98.4-1.84l0.48-215c4.16-0.98,6.22-1.75,7.37-2.26
			c0.89-0.38,1.24-0.62,1.6-0.68c0.01,0,0.01,0,0.01,0c0.53,0.19,1.1,0.33,1.72,0.42c8.57,1.36,25.1-4.97,35.68-8.87l12.39-2.33
			c-0.36,0.11-1.86,0.58-3.14,1.17c-0.93,0.43-1.74,0.92-1.89,1.38c-0.22,0.66-0.53,1.37-0.99,1.98
			c-8.23,6.93-10.42,17.34-10.42,18.44c0,1.09-6.73,9.79-8.47,18.37c-3.81,3.18-9.05,13.31-9.37,20.46
			c-3.48,2.24-3.64,5.24-4.12,13.97c-1.27,6.51-1.74,10.15-4.6,18.88c-1.58,3.01-5.55,10.31-0.79,10.46
			c3.49,0.16,8.89,1.11,16.98,6.2c4.11,1.42,7.13,5.54,11.58,6.66c0,0,0,0.05-0.01,0.16c-0.14,1.45-1.25,12.51-3.85,14.51
			c-0.85,2.66-1.92,5.65,0.86,8.53c1.28,2.03,3.64,3.94,3,6.5c-1.51,1.28,0.62,1.28,0.62,1.28s48.16-8.55,51.84-9.13
			c0.11-0.02,0.18-0.03,0.2-0.04c0,0,0.01,0,0.02,0l0.43-0.04l1.29-0.12c0.1,0.09,0.19,0.21,0.24,0.37
			C343.38,635.18,343.3,636.29,342.58,638.34z"/>
		<path class="st3" d="M244.84,651.88c0,0,91.14-16.09,96.1-17.05"/>
		<path class="st3" d="M291.27,497.2l-35.72,8.88c-0.98-0.34-1.36-0.47-1.72-0.42"/>
		<path class="st6" d="M439.5,690.42v37.05l-96.95-1.81c0-12.02-0.03-80.01-0.32-86.92c0.93-2.63,0.79-3.72,0.34-4.11l0.5-0.05
			l0.6-0.05l0.38,0.22l43.24,25.22L439.5,690.42z"/>
		<polygon class="st3" points="343.82,634.39 345,634.39 343.98,634.49 		"/>
		<path class="st3" d="M342.5,727.89v-2"/>
		<g>
			<path d="M267.3,533.61c-0.86,0.23-1.68,0.52-2.49,0.88c-0.81,0.37-1.6,0.79-2.37,1.25c-1.55,0.91-3.05,1.98-4.53,3.04l-0.69-0.72
				c1.27-1.46,2.77-2.66,4.42-3.67c0.84-0.49,1.71-0.93,2.64-1.25c0.93-0.31,1.91-0.53,2.92-0.53L267.3,533.61z"/>
		</g>
		<g>
			<path d="M257.88,576.09c-0.33,0.21-0.35,0.18-0.47,0.25l-0.26,0.12l-0.49,0.22l-0.95,0.42c-0.62,0.29-1.21,0.58-1.79,0.91
				c-0.58,0.32-1.13,0.69-1.68,1.08c-0.56,0.38-1.06,0.84-1.65,1.27l-0.81-0.58c0.59-1.47,1.76-2.7,3.15-3.5
				c0.7-0.4,1.44-0.71,2.22-0.88c0.39-0.09,0.78-0.15,1.17-0.18c0.2-0.01,0.39-0.02,0.58-0.02l0.28,0.01
				c0.07,0.03,0.23-0.03,0.06,0.11L257.88,576.09z"/>
		</g>
		<g>
			<path d="M274.94,617.59c-0.38,2.3-1.14,4.46-2.07,6.57c-0.93,2.1-2.11,4.11-3.47,5.98c-1.33,1.9-2.97,3.59-4.76,5.09
				s-3.87,2.65-6.04,3.44l-0.48-0.88c1.69-1.47,3.35-2.82,4.83-4.41c1.49-1.56,2.9-3.17,4.19-4.91c1.29-1.73,2.49-3.54,3.63-5.41
				c1.13-1.87,2.19-3.81,3.21-5.77L274.94,617.59z"/>
		</g>
		<g>
			<path d="M265.78,617.79c-1.49,1.82-3.02,3.59-4.57,5.35l-4.69,5.24c-1.6,1.72-3.17,3.45-4.79,5.15c-1.61,1.7-3.23,3.4-4.9,5.05
				l-0.74-0.67c1.49-1.81,3.03-3.58,4.57-5.35c1.54-1.77,3.12-3.5,4.69-5.24l4.78-5.16c1.61-1.7,3.24-3.39,4.91-5.04L265.78,617.79z
				"/>
		</g>
		<path class="st3" d="M415.36,371.4l-1.82-1.86c0,0-2.94-3.57-3.22-9.87s0.56-8.17,3.22-14.64l0.7-1.19
			c1.02-0.85,1.02-0.85,1.02-0.85"/>
		<polygon class="st5" points="302.44,495.39 299.09,495.39 305.55,494.3 		"/>
		<path class="st7" d="M341.63,634.35l-0.43,0.04c-0.01,0-0.02,0-0.02,0c-0.02,0.01-0.09,0.02-0.2,0.04
			c-3.68,0.58-51.84,9.13-51.84,9.13s-2.13,0-0.62-1.28c0.64-2.56-1.72-4.47-3-6.5c-2.78-2.88-1.71-5.87-0.86-8.53
			c2.6-2,3.71-13.06,3.85-14.51c2.75-1.35,3.61-1.78,8.66,0.25c3.86,0.71,8.68,0.31,11.05-0.18c0.3,0.13,0.61,0.26,0.91,0.4
			C327.15,632.57,327.37,632.02,341.63,634.35z"/>
		<path class="st8" d="M333.26,493.46c3.93,16.22-5.47,25.56-10.57,39.54c-2.6,7.89-4.36,16.28-5.74,24.47
			c-5.91,12.83-13.54,24.43-22.47,35.24c-6.48,16.42,1.95,15,13.74,20.1c-2.37,0.49-7.19,0.89-11.05,0.18
			c-5.05-2.03-5.91-1.6-8.66-0.25c0.01-0.11,0.01-0.16,0.01-0.16c-4.45-1.12-7.47-5.24-11.58-6.66c-8.09-5.09-13.49-6.04-16.98-6.2
			c-4.76-0.15-0.79-7.45,0.79-10.46c2.86-8.73,3.33-12.37,4.6-18.88c0.48-8.73,0.64-11.73,4.12-13.97
			c0.32-7.15,5.56-17.28,9.37-20.46c1.74-8.58,8.47-17.28,8.47-18.37c0-1.1,2.19-11.51,10.42-18.44c0.46-0.61,0.77-1.32,0.99-1.98
			c0.15-0.46,0.96-0.95,1.89-1.38c1.2-0.21,2.41-0.36,3.63-0.45c8.95-0.03,18.4,0.93,27.17-1.12c2.44-1.85,4.76-3.84,6.99-5.94
			C336.63,490.13,334.9,491.88,333.26,493.46z"/>
		<path class="st3" d="M309.66,612.29c-0.08,0.15-0.61,0.34-1.44,0.52"/>
		<line class="st3" x1="288.51" y1="612.74" x2="288.5" y2="612.74"/>
		<path class="st3" d="M340.78,634.79c0.05-0.04,0.52-0.3,1-0.35c0.26-0.03,0.52,0.01,0.72,0.19v-1.74"/>
		<path class="st9" d="M387.29,659.97l-43.24-25.22c3.25,0.56,7.16,1.28,12.01,2.38c2.99,0.9,3.75,3.22,5.72,5.24
			c0.46,0.46,1.41,0.67,1.95,0.64c6.06,0.21,11.4,4,17.56,3.84c0.92,0.1,1.73-0.23,2.43-0.87
			C384.39,647.15,386.3,651.18,387.29,659.97z"/>
		<path class="st3" d="M383.5,643.89v1.71c0,0,0.08,0.12,0.22,0.38"/>
	</g>
	<path class="st4" d="M368.07,427.5c-32.02-2-42.15,7.29-50.74,10.16c-19.44,6.31-16.58,4.52-22.85-0.61l7.31-1.23
		c0.78-0.13,1.26-0.85,1.02-1.54l-0.46-1.39c-0.2-0.59,0.23-1.21,0.91-1.28l1.49-0.16c0.72-0.08,1.23-0.68,1.13-1.34l-0.13-0.79
		c-0.17-1.05,0.78-1.97,1.93-1.87l0.44,0.04c1.03,0.08,2-0.45,2.41-1.32l2.09-4.45c0.08-0.18,0.21-0.34,0.37-0.47l13-10.7
		c1.24-1.02,1.91-2.5,1.81-4.02l-0.63-9.69c-0.06-0.97,0.49-1.88,1.43-2.34l7.39-3.65c0.78-0.39,1.37-1.03,1.65-1.8l2.41-6.66
		c0.19-0.52,0.63-0.92,1.2-1.09l4.31-1.25c0.4,0.73,0.93,1.45,1.61,2.16c2.68,8.8,4.66,18.47,12.05,24.88
		c3.73,6.06,7.63,12.82,8.42,20.34L368.07,427.5z"/>
	<line class="st3" x1="346.73" y1="379.71" x2="345.56" y2="380.05"/>
</g>
</svg>
