<svg width="506" height="60" viewBox="0 0 506 60" fill="none" xmlns="http://www.w3.org/2000/svg">
<path d="M28.4877 45H0.347656V1.8H14.5677V33.3H28.4877V45ZM45.4466 45H31.2266V1.8H45.4466V45ZM94.3002 45H81.2202L62.3802 22.74V45H48.1602V1.8H61.8402L80.4402 24V1.8H94.3002V45ZM142.206 45H124.086L111.246 30V45H97.0859V1.74H111.246V15.66L122.766 1.74H140.706L122.166 22.2L142.206 45ZM206.552 12.84H197.132V45.06H182.972V12.84H173.492V1.8H206.552V12.84ZM263.774 23.46C263.814 28.18 262.554 32.38 259.994 36.06C257.434 39.7 254.074 42.42 249.914 44.22C245.794 45.98 241.394 46.68 236.714 46.32C233.194 46.44 229.754 46.02 226.394 45.06C223.074 44.1 220.094 42.68 217.454 40.8C214.814 38.88 212.734 36.4 211.214 33.36C209.694 30.32 209.014 26.98 209.174 23.34C209.094 18.58 210.374 14.36 213.014 10.68C215.694 6.96 219.134 4.22 223.334 2.46C227.574 0.699998 232.034 -1.19209e-06 236.714 0.359999C240.194 0.239998 243.574 0.699998 246.854 1.74C250.174 2.74 253.114 4.2 255.674 6.12C258.234 8.04 260.254 10.52 261.734 13.56C263.254 16.56 263.934 19.86 263.774 23.46ZM248.774 23.4C248.774 20.24 247.594 17.68 245.234 15.72C242.874 13.76 240.034 12.78 236.714 12.78C233.234 12.78 230.274 13.66 227.834 15.42C225.394 17.18 224.174 19.84 224.174 23.4C224.174 26.68 225.414 29.26 227.894 31.14C230.414 33.02 233.354 33.96 236.714 33.96C240.154 33.96 243.014 33.08 245.294 31.32C247.614 29.56 248.774 26.92 248.774 23.4ZM355.462 45H341.362L338.782 30.12C338.342 26.52 338.042 23.48 337.882 21C337.682 23.36 337.502 24.92 337.342 25.68C337.182 26.44 336.742 27.92 336.022 30.12L325.942 59.28L315.922 30.12C315.202 27.84 314.762 26.32 314.602 25.56C314.442 24.8 314.262 23.28 314.062 21C313.942 23.6 313.662 26.64 313.222 30.12L310.642 45H296.422L304.522 1.8H318.022L324.082 16.56C324.842 18.8 325.302 20.3 325.462 21.06C325.622 21.82 325.782 23.4 325.942 25.8C326.102 23.4 326.242 21.82 326.362 21.06C326.522 20.3 327.002 18.8 327.802 16.56L333.862 1.8H347.422L355.462 45ZM410.024 23.46C410.064 28.18 408.804 32.38 406.244 36.06C403.684 39.7 400.324 42.42 396.164 44.22C392.044 45.98 387.644 46.68 382.964 46.32C379.444 46.44 376.004 46.02 372.644 45.06C369.324 44.1 366.344 42.68 363.704 40.8C361.064 38.88 358.984 36.4 357.464 33.36C355.944 30.32 355.264 26.98 355.424 23.34C355.344 18.58 356.624 14.36 359.264 10.68C361.944 6.96 365.384 4.22 369.584 2.46C373.824 0.699998 378.284 -1.19209e-06 382.964 0.359999C386.444 0.239998 389.824 0.699998 393.104 1.74C396.424 2.74 399.364 4.2 401.924 6.12C404.484 8.04 406.504 10.52 407.984 13.56C409.504 16.56 410.184 19.86 410.024 23.46ZM395.024 23.4C395.024 20.24 393.844 17.68 391.484 15.72C389.124 13.76 386.284 12.78 382.964 12.78C379.484 12.78 376.524 13.66 374.084 15.42C371.644 17.18 370.424 19.84 370.424 23.4C370.424 26.68 371.664 29.26 374.144 31.14C376.664 33.02 379.604 33.96 382.964 33.96C386.404 33.96 389.264 33.08 391.544 31.32C393.864 29.56 395.024 26.92 395.024 23.4ZM455.63 1.8L434.15 59.28L412.73 1.8H426.23L432.29 16.56C433.05 18.8 433.51 20.3 433.67 21.06C433.83 21.82 433.99 23.4 434.15 25.8C434.31 23.4 434.47 21.82 434.63 21.06C434.79 20.3 435.25 18.8 436.01 16.56L442.07 1.8H455.63ZM469.841 45H455.621V1.8H469.841V45ZM505.015 45H472.555V1.8H505.015V13.44L486.715 13.38V18.24H503.755L503.815 29.04H486.715V33.66L505.015 33.72V45Z" fill="#FF5D02" fill-opacity="0.9"/>
</svg>
