<svg width="79" height="78" viewBox="0 0 79 78" fill="none" xmlns="http://www.w3.org/2000/svg">
<path d="M78.72 58H59.92L56.48 38.16C55.8933 33.36 55.4933 29.3067 55.28 26C55.0133 29.1467 54.7733 31.2267 54.56 32.24C54.3467 33.2533 53.76 35.2267 52.8 38.16L39.36 77.04L26 38.16C25.04 35.12 24.4533 33.0933 24.24 32.08C24.0267 31.0667 23.7867 29.04 23.52 26C23.36 29.4667 22.9867 33.52 22.4 38.16L18.96 58H0L10.8 0.399998H28.8L36.88 20.08C37.8933 23.0667 38.5067 25.0667 38.72 26.08C38.9333 27.0933 39.1467 29.2 39.36 32.4C39.5733 29.2 39.76 27.0933 39.92 26.08C40.1333 25.0667 40.7733 23.0667 41.84 20.08L49.92 0.399998H68L78.72 58Z" fill="#FF1102" fill-opacity="0.9"/>
</svg>
