<svg width="366" height="80" viewBox="0 0 366 80" fill="none" xmlns="http://www.w3.org/2000/svg">
<path d="M79.5481 60H60.7481L57.3081 40.16C56.7215 35.36 56.3215 31.3067 56.1081 28C55.8415 31.1467 55.6015 33.2267 55.3881 34.24C55.1748 35.2533 54.5881 37.2267 53.6281 40.16L40.1881 79.04L26.8281 40.16C25.8681 37.12 25.2815 35.0933 25.0681 34.08C24.8548 33.0667 24.6148 31.04 24.3481 28C24.1881 31.4667 23.8148 35.52 23.2281 40.16L19.7881 60H0.828125L11.6281 2.4H29.6281L37.7081 22.08C38.7215 25.0667 39.3348 27.0667 39.5481 28.08C39.7615 29.0933 39.9748 31.2 40.1881 34.4C40.4015 31.2 40.5881 29.0933 40.7481 28.08C40.9615 27.0667 41.6015 25.0667 42.6681 22.08L50.7481 2.4H68.8281L79.5481 60Z" fill="#FF1102" fill-opacity="0.9"/>
<path d="M150.058 60H127.098L124.858 52H105.018L102.698 60H79.5781L104.858 2.32H125.098L150.058 60ZM114.858 39.52H120.538C118.245 33.1733 116.858 29.12 116.378 27.36C115.951 25.5467 115.445 22.56 114.858 18.4C114.271 22.4533 113.738 25.36 113.258 27.12C112.831 28.88 111.525 33.0133 109.338 39.52H114.858ZM210.207 60H186.047L168.927 40V60H150.047V2.32H168.927V20.88L184.287 2.32H208.207L183.487 29.6L210.207 60ZM255.28 60H212V2.4H255.28V17.92L230.88 17.84V24.32H253.6L253.68 38.72H230.88V44.88L255.28 44.96V60ZM314.077 60H289.837L277.757 43.52V60H258.797V2.4H283.517C290.237 2.4 295.73 4.02666 299.997 7.28C304.317 10.48 306.477 15.2533 306.477 21.6C306.477 28.96 302.504 34.1067 294.557 37.04L314.077 60ZM286.237 21.6C286.237 20.0533 285.57 18.8533 284.237 18C282.904 17.1467 281.357 16.7733 279.597 16.88H277.757V26.64H279.597C281.464 26.64 283.01 26.24 284.237 25.44C285.517 24.5867 286.184 23.3067 286.237 21.6ZM365.309 42.64L365.389 42.72C365.336 48.48 363.256 53.0933 359.149 56.56C355.043 60.0267 348.429 61.76 339.309 61.76C327.043 61.76 317.603 59.2533 310.989 54.24L320.509 39.28C322.909 41.2 326.056 42.64 329.949 43.6C333.843 44.56 336.963 45.04 339.309 45.04C340.003 45.04 340.589 45.0133 341.069 44.96C341.603 44.8533 342.056 44.6133 342.429 44.24C342.856 43.8667 343.069 43.3333 343.069 42.64C343.016 42 342.616 41.4133 341.869 40.88C341.123 40.3467 340.269 39.9733 339.309 39.76C335.629 38.9067 332.429 37.9733 329.709 36.96C327.043 35.8933 324.429 34.56 321.869 32.96C319.363 31.3067 317.443 29.2533 316.109 26.8C314.776 24.3467 314.109 21.5467 314.109 18.4C314.109 13.12 316.189 8.8 320.349 5.44C324.563 2.08 330.883 0.399995 339.309 0.399995C347.683 0.399995 355.736 2.21333 363.469 5.84L354.429 20.4C352.189 19.0133 349.576 17.8933 346.589 17.04C343.603 16.1867 341.149 15.76 339.229 15.76C335.869 15.76 334.189 16.64 334.189 18.4C334.189 19.0933 334.429 19.5733 334.909 19.84C335.389 20.1067 336.856 20.5867 339.309 21.28C347.043 23.4133 352.349 25.2267 355.229 26.72C361.416 29.9733 364.749 34.9067 365.229 41.52C365.283 41.8933 365.309 42.2667 365.309 42.64Z" fill="#FF5D02" fill-opacity="0.9"/>
</svg>
