<svg width="558" height="190" viewBox="0 0 558 190" fill="none" xmlns="http://www.w3.org/2000/svg">
<path d="M96.3919 98H77.5919L74.1519 78.16C73.5652 73.36 73.1652 69.3067 72.9519 66C72.6852 69.1467 72.4452 71.2267 72.2319 72.24C72.0185 73.2533 71.4319 75.2267 70.4719 78.16L57.0319 117.04L43.6719 78.16C42.7119 75.12 42.1252 73.0933 41.9119 72.08C41.6985 71.0667 41.4585 69.04 41.1919 66C41.0319 69.4667 40.6585 73.52 40.0719 78.16L36.6319 98H17.6719L28.4719 40.4H46.4719L54.5519 60.08C55.5652 63.0667 56.1785 65.0667 56.3919 66.08C56.6052 67.0933 56.8185 69.2 57.0319 72.4C57.2452 69.2 57.4319 67.0933 57.5919 66.08C57.8052 65.0667 58.4452 63.0667 59.5119 60.08L67.5919 40.4H85.6719L96.3919 98Z" fill="#FF1102" fill-opacity="0.9"/>
<path d="M139.702 98H96.4219V40.4H139.702V55.92L115.302 55.84V62.32H138.022L138.102 76.72H115.302V82.88L139.702 82.96V98ZM213.699 98H190.739L188.499 90H168.659L166.339 98H143.219L168.499 40.32H188.739L213.699 98ZM178.499 77.52H184.179C181.885 71.1733 180.499 67.12 180.019 65.36C179.592 63.5467 179.085 60.56 178.499 56.4C177.912 60.4533 177.379 63.36 176.899 65.12C176.472 66.88 175.165 71.0133 172.979 77.52H178.499ZM275.208 98H257.767L232.648 68.32V98H213.688V40.4H231.928L256.728 70V40.4H275.208V98ZM369.882 40.4L341.402 117.04L326.842 78.16C325.829 75.3867 325.215 73.4933 325.002 72.48C324.842 71.4667 324.655 69.3067 324.442 66C324.229 69.2 324.015 71.3067 323.802 72.32C323.642 73.3333 323.055 75.28 322.042 78.16L307.482 117.04L278.922 40.4H296.922L305.002 60.08C306.015 63.0667 306.629 65.0667 306.842 66.08C307.055 67.0933 307.269 69.2 307.482 72.4C307.695 69.2 307.909 67.0933 308.122 66.08C308.335 65.0667 308.949 63.0667 309.962 60.08L318.042 40.4H330.762L338.922 60.08C339.989 63.0667 340.602 65.0667 340.762 66.08C340.975 67.0933 341.189 69.2 341.402 72.4C341.615 69.2 341.802 67.0933 341.962 66.08C342.175 65.0667 342.815 63.0667 343.882 60.08L351.962 40.4H369.882ZM426.099 98H407.139V75.6H388.819V98H369.859V40.4H388.819V61.12H407.139V40.4H426.099V98ZM448.741 98H429.781V40.4H448.741V98ZM489.879 98H452.359V40.4H471.319V82.4H489.879V98ZM536.811 98H493.531V40.4H536.811V55.92L512.411 55.84V62.32H535.131L535.211 76.72H512.411V82.88L536.811 82.96V98Z" fill="#FF5D02" fill-opacity="0.9"/>
<path d="M61.5652 121.92H56.8552V138.03H49.7752V121.92H45.0352V116.4H61.5652V121.92ZM83.9963 138H76.8863V129.6H70.0163V138H62.9062V116.4H70.0163V124.17H76.8863V116.4H83.9963V138ZM101.607 138H85.377V116.4H101.607V122.22L92.457 122.19V124.62H100.977L101.007 130.02H92.457V132.33L101.607 132.36V138ZM123.656 138H114.566L110.036 131.82V138H102.926V116.4H112.196C114.716 116.4 116.776 117.01 118.376 118.23C119.996 119.43 120.806 121.22 120.806 123.6C120.806 126.36 119.316 128.29 116.336 129.39L123.656 138ZM113.216 123.6C113.216 123.02 112.966 122.57 112.466 122.25C111.966 121.93 111.386 121.79 110.726 121.83H110.036V125.49H110.726C111.426 125.49 112.006 125.34 112.466 125.04C112.946 124.72 113.196 124.24 113.216 123.6ZM139.898 138H123.668V116.4H139.898V122.22L130.748 122.19V124.62H139.268L139.298 130.02H130.748V132.33L139.898 132.36V138ZM163.298 138H156.188V116.4H163.298V138ZM183.854 131.49L183.884 131.52C183.864 133.68 183.084 135.41 181.544 136.71C180.004 138.01 177.524 138.66 174.104 138.66C169.504 138.66 165.964 137.72 163.484 135.84L167.054 130.23C167.954 130.95 169.134 131.49 170.594 131.85C172.054 132.21 173.224 132.39 174.104 132.39C174.364 132.39 174.584 132.38 174.764 132.36C174.964 132.32 175.134 132.23 175.274 132.09C175.434 131.95 175.514 131.75 175.514 131.49C175.494 131.25 175.344 131.03 175.064 130.83C174.784 130.63 174.464 130.49 174.104 130.41C172.724 130.09 171.524 129.74 170.504 129.36C169.504 128.96 168.524 128.46 167.564 127.86C166.624 127.24 165.904 126.47 165.404 125.55C164.904 124.63 164.654 123.58 164.654 122.4C164.654 120.42 165.434 118.8 166.994 117.54C168.574 116.28 170.944 115.65 174.104 115.65C177.244 115.65 180.264 116.33 183.164 117.69L179.774 123.15C178.934 122.63 177.954 122.21 176.834 121.89C175.714 121.57 174.794 121.41 174.074 121.41C172.814 121.41 172.184 121.74 172.184 122.4C172.184 122.66 172.274 122.84 172.454 122.94C172.634 123.04 173.184 123.22 174.104 123.48C177.004 124.28 178.994 124.96 180.074 125.52C182.394 126.74 183.644 128.59 183.824 131.07C183.844 131.21 183.854 131.35 183.854 131.49ZM226.328 138H217.718L216.878 135H209.438L208.568 138H199.898L209.378 116.37H216.968L226.328 138ZM213.128 130.32H215.258C214.398 127.94 213.878 126.42 213.698 125.76C213.538 125.08 213.348 123.96 213.128 122.4C212.908 123.92 212.708 125.01 212.528 125.67C212.368 126.33 211.878 127.88 211.058 130.32H213.128ZM249.394 138H242.854L233.434 126.87V138H226.324V116.4H233.164L242.464 127.5V116.4H249.394V138ZM292.188 138H283.578L282.738 135H275.298L274.428 138H265.758L275.238 116.37H282.828L292.188 138ZM278.988 130.32H281.118C280.258 127.94 279.738 126.42 279.558 125.76C279.398 125.08 279.208 123.96 278.988 122.4C278.768 123.92 278.568 125.01 278.388 125.67C278.228 126.33 277.738 127.88 276.918 130.32H278.988ZM309.794 137.52H309.824C308.224 138.3 306.344 138.69 304.184 138.69C300.984 138.69 298.174 137.77 295.754 135.93C293.014 133.77 291.644 130.87 291.644 127.23C291.644 123.61 293.024 120.71 295.784 118.53C298.164 116.65 300.964 115.71 304.184 115.71C306.164 115.71 308.034 116.12 309.794 116.94V124.71C309.074 123.67 308.284 123 307.424 122.7C306.584 122.4 305.504 122.25 304.184 122.25C302.864 122.25 301.694 122.67 300.674 123.51C299.554 124.45 298.994 125.69 298.994 127.23C298.994 128.79 299.544 130.05 300.644 131.01C301.604 131.85 302.784 132.27 304.184 132.27C304.864 132.27 305.364 132.26 305.684 132.24C306.004 132.22 306.434 132.16 306.974 132.06C307.534 131.94 308.034 131.73 308.474 131.43C308.934 131.11 309.374 130.7 309.794 130.2V137.52ZM327.493 121.92H322.783V138.03H315.703V121.92H310.963V116.4H327.493V121.92ZM349.144 128.55C349.144 135.31 345.734 138.69 338.914 138.69C332.194 138.69 328.834 135.31 328.834 128.55V116.4H335.914V128.55C335.914 131.31 336.914 132.69 338.914 132.69C341.014 132.69 342.064 131.32 342.064 128.58V116.4H349.144V128.55ZM376.944 138H368.334L367.494 135H360.054L359.184 138H350.514L359.994 116.37H367.584L376.944 138ZM363.744 130.32H365.874C365.014 127.94 364.494 126.42 364.314 125.76C364.154 125.08 363.964 123.96 363.744 122.4C363.524 123.92 363.324 125.01 363.144 125.67C362.984 126.33 362.494 127.88 361.674 130.32H363.744ZM391.009 138H376.939V116.4H384.049V132.15H391.009V138ZM436.87 138H429.82L428.53 130.56C428.31 128.76 428.16 127.24 428.08 126C427.98 127.18 427.89 127.96 427.81 128.34C427.73 128.72 427.51 129.46 427.15 130.56L422.11 145.14L417.1 130.56C416.74 129.42 416.52 128.66 416.44 128.28C416.36 127.9 416.27 127.14 416.17 126C416.11 127.3 415.97 128.82 415.75 130.56L414.46 138H407.35L411.4 116.4H418.15L421.18 123.78C421.56 124.9 421.79 125.65 421.87 126.03C421.95 126.41 422.03 127.2 422.11 128.4C422.19 127.2 422.26 126.41 422.32 126.03C422.4 125.65 422.64 124.9 423.04 123.78L426.07 116.4H432.85L436.87 138ZM464.151 127.23C464.171 129.59 463.541 131.69 462.261 133.53C460.981 135.35 459.301 136.71 457.221 137.61C455.161 138.49 452.961 138.84 450.621 138.66C448.861 138.72 447.141 138.51 445.461 138.03C443.801 137.55 442.311 136.84 440.991 135.9C439.671 134.94 438.631 133.7 437.871 132.18C437.111 130.66 436.771 128.99 436.851 127.17C436.811 124.79 437.451 122.68 438.771 120.84C440.111 118.98 441.831 117.61 443.931 116.73C446.051 115.85 448.281 115.5 450.621 115.68C452.361 115.62 454.051 115.85 455.691 116.37C457.351 116.87 458.821 117.6 460.101 118.56C461.381 119.52 462.391 120.76 463.131 122.28C463.891 123.78 464.231 125.43 464.151 127.23ZM456.651 127.2C456.651 125.62 456.061 124.34 454.881 123.36C453.701 122.38 452.281 121.89 450.621 121.89C448.881 121.89 447.401 122.33 446.181 123.21C444.961 124.09 444.351 125.42 444.351 127.2C444.351 128.84 444.971 130.13 446.211 131.07C447.471 132.01 448.941 132.48 450.621 132.48C452.341 132.48 453.771 132.04 454.911 131.16C456.071 130.28 456.651 128.96 456.651 127.2ZM486.954 116.4L476.214 145.14L465.504 116.4H472.254L475.284 123.78C475.664 124.9 475.894 125.65 475.974 126.03C476.054 126.41 476.134 127.2 476.214 128.4C476.294 127.2 476.374 126.41 476.454 126.03C476.534 125.65 476.764 124.9 477.144 123.78L480.174 116.4H486.954ZM494.059 138H486.949V116.4H494.059V138ZM511.646 138H495.416V116.4H511.646V122.22L502.496 122.19V124.62H511.016L511.046 130.02H502.496V132.33L511.646 132.36V138Z" fill="#FFB802"/>
</svg>
