<svg width="279" height="80" viewBox="0 0 279 80" fill="none" xmlns="http://www.w3.org/2000/svg">
<path d="M79.3997 60H60.5997L57.1597 40.16C56.573 35.36 56.173 31.3067 55.9597 28C55.693 31.1467 55.453 33.2267 55.2397 34.24C55.0264 35.2533 54.4397 37.2267 53.4797 40.16L40.0397 79.04L26.6797 40.16C25.7197 37.12 25.133 35.0933 24.9197 34.08C24.7064 33.0667 24.4664 31.04 24.1997 28C24.0397 31.4667 23.6664 35.52 23.0797 40.16L19.6397 60H0.679688L11.4797 2.4H29.4797L37.5597 22.08C38.573 25.0667 39.1864 27.0667 39.3997 28.08C39.613 29.0933 39.8264 31.2 40.0397 34.4C40.253 31.2 40.4397 29.0933 40.5997 28.08C40.813 27.0667 41.453 25.0667 42.5197 22.08L50.5997 2.4H68.6797L79.3997 60Z" fill="#FF1102" fill-opacity="0.9"/>
<path d="M152.15 31.28C152.203 37.5733 150.523 43.1733 147.11 48.08C143.696 52.9333 139.216 56.56 133.67 58.96C128.176 61.3067 122.31 62.24 116.07 61.76C111.376 61.92 106.79 61.36 102.31 60.08C97.883 58.8 93.9097 56.9067 90.3897 54.4C86.8697 51.84 84.0964 48.5333 82.0697 44.48C80.043 40.4267 79.1364 35.9733 79.3497 31.12C79.243 24.7733 80.9497 19.1467 84.4697 14.24C88.043 9.28 92.6297 5.62666 98.2297 3.28C103.883 0.933331 109.83 -1.58946e-06 116.07 0.479999C120.71 0.319997 125.216 0.933331 129.59 2.32C134.016 3.65333 137.936 5.6 141.35 8.16C144.763 10.72 147.456 14.0267 149.43 18.08C151.456 22.08 152.363 26.48 152.15 31.28ZM132.15 31.2C132.15 26.9867 130.576 23.5733 127.43 20.96C124.283 18.3467 120.496 17.04 116.07 17.04C111.43 17.04 107.483 18.2133 104.23 20.56C100.976 22.9067 99.3497 26.4533 99.3497 31.2C99.3497 35.5733 101.003 39.0133 104.31 41.52C107.67 44.0267 111.59 45.28 116.07 45.28C120.656 45.28 124.47 44.1067 127.51 41.76C130.603 39.4133 132.15 35.8933 132.15 31.2ZM212.958 2.4L184.318 79.04L155.758 2.4H173.758L181.838 22.08C182.851 25.0667 183.464 27.0667 183.678 28.08C183.891 29.0933 184.104 31.2 184.318 34.4C184.531 31.2 184.744 29.0933 184.958 28.08C185.171 27.0667 185.784 25.0667 186.798 22.08L194.878 2.4H212.958ZM231.905 60H212.945V2.4H231.905V60ZM278.803 60H235.523V2.4H278.803V17.92L254.403 17.84V24.32H277.123L277.203 38.72H254.403V44.88L278.803 44.96V60Z" fill="#FF5D02" fill-opacity="0.9"/>
</svg>
